<svg xmlns="http://www.w3.org/2000/svg" width="52.996" height="51.339" viewBox="0 0 52.996 51.339"><defs><style>.a{fill:#616262;}.b{fill:#6ebe49;}</style></defs><g transform="translate(-198.481 -164.918)"><path class="a" d="M231.293,202.918a1.543,1.543,0,0,0-1.261.668q-.395.567-.8,1.1a30.84,30.84,0,0,1-6.634,6.5,18.506,18.506,0,0,1-2.619,1.552,5.862,5.862,0,0,1-.843.343.613.613,0,0,1-.582,0,5.558,5.558,0,0,1-.843-.343,18.507,18.507,0,0,1-2.619-1.552,30.818,30.818,0,0,1-6.634-6.5c-4.451-5.809-8.175-14.635-6.575-26.735a1.431,1.431,0,0,1,.96-1.136c1.647-.54,9.771-3.006,13.253-3.739a1.522,1.522,0,0,0,1.211-1.493h0a1.523,1.523,0,0,0-1.843-1.494c-4,.87-11.943,3.253-13.514,3.77a4.5,4.5,0,0,0-3.053,3.679c-1.746,13.026,2.3,22.685,7.187,29.065a34.056,34.056,0,0,0,7.3,7.138,21.834,21.834,0,0,0,3.055,1.818,4.521,4.521,0,0,0,4.83,0,21.835,21.835,0,0,0,3.055-1.818,34.056,34.056,0,0,0,7.3-7.138q.488-.638.945-1.3a1.531,1.531,0,0,0-1.273-2.388Z"/><ellipse class="b" cx="7.5" cy="14.5" rx="7.5" ry="14.5" transform="translate(227.477 166.918)"/><path class="a" d="M218.477,181.418a16.5,16.5,0,1,1,16.5,16.5,16.5,16.5,0,0,1-16.5-16.5Zm15.469-14.279c-1.382.421-2.764,1.691-3.9,3.826a18.025,18.025,0,0,0-.97,2.2h4.868Zm-7.033,6.029a18.811,18.811,0,0,1,1.32-3.174,13.877,13.877,0,0,1,1.238-1.924,14.6,14.6,0,0,0-6.353,5.1Zm-1.2,7.219a29.05,29.05,0,0,1,.638-5.156h-4.433a14.387,14.387,0,0,0-1.341,5.156Zm2.763-5.156a24.85,24.85,0,0,0-.7,5.156h6.166v-5.156Zm7.528,0v5.156h6.167a25.053,25.053,0,0,0-.7-5.156Zm-8.229,7.219a24.831,24.831,0,0,0,.7,5.156h5.465V182.45Zm8.229,0v5.156h5.473a25.053,25.053,0,0,0,.7-5.156Zm-6.93,7.219a18.025,18.025,0,0,0,.97,2.2c1.134,2.135,2.516,3.4,3.9,3.826v-6.027Zm.392,5.1a13.82,13.82,0,0,1-1.238-1.924,18.81,18.81,0,0,1-1.32-3.174h-3.795a14.591,14.591,0,0,0,6.357,5.1Zm-3.115-7.161a28.957,28.957,0,0,1-.638-5.156h-5.136a14.387,14.387,0,0,0,1.341,5.156Zm14.129,7.161a14.592,14.592,0,0,0,6.352-5.1h-3.8a18.978,18.978,0,0,1-1.32,3.174,13.905,13.905,0,0,1-1.228,1.924Zm-4.476-5.1V195.7c1.383-.421,2.764-1.691,3.9-3.826a15.284,15.284,0,0,0,.949-2.2Zm7.59-2.063h4.435a14.406,14.406,0,0,0,1.34-5.156h-5.135a29.047,29.047,0,0,1-.636,5.156Zm5.775-7.219a14.385,14.385,0,0,0-1.34-5.156h-4.435a29.051,29.051,0,0,1,.64,5.156Zm-7.652-10.393a18.976,18.976,0,0,1,1.32,3.174h3.8a14.606,14.606,0,0,0-6.352-5.1,13.978,13.978,0,0,1,1.236,1.926Zm-.866,3.174a15.171,15.171,0,0,0-.949-2.2c-1.134-2.135-2.515-3.4-3.9-3.826v6.029Z"/></g></svg>