<svg xmlns="http://www.w3.org/2000/svg" width="50.5" height="67.504" viewBox="0 0 50.5 67.504"><defs><style>.a,.c{fill:#616262;}.b{fill:#6ebe49;}.c{stroke:#616262;}.d{fill:#fff;}</style></defs><g transform="translate(-74.305 -83.848)"><g transform="translate(74.305 83.848)"><path class="a" d="M93.433,102.444V86.671a2.939,2.939,0,0,1,.807-2,2.779,2.779,0,0,1,3.934-.013l.015.013a2.948,2.948,0,0,1,.807,2v1.654H112.9a2.8,2.8,0,0,1,2.224,1.129l2.7,3.672a1.377,1.377,0,0,1,0,1.694l-2.7,3.671a2.784,2.784,0,0,1-2.224,1.13H99v28.234H93.433V113.737H79.521a2.779,2.779,0,0,1-2.226-1.13l-2.7-3.671a1.372,1.372,0,0,1,0-1.694l2.7-3.671a2.791,2.791,0,0,1,2.226-1.129Zm2.782,8.47V105.27H79.521l-2.091,2.824,2.091,2.824Zm0-14.118h16.691l2.085-2.824-2.085-2.823H96.214Z" transform="translate(-74.305 -83.848)"/></g><g transform="translate(85.305 111.848)"><path class="b" d="M120.235,122.153l-14.092,5.664A1.827,1.827,0,0,0,105,129.512V147.3A1.828,1.828,0,0,0,107.5,149l14.092-5.658a1.828,1.828,0,0,0,1.148-1.692v-17.8a1.827,1.827,0,0,0-2.509-1.7Z" transform="translate(-85.5 -112.5)"/><path class="c" d="M105.459,115.037a1.255,1.255,0,0,0-.926,0l-14.526,5.849L105,126.913l14.99-6.027Zm16.6,7.655-15.843,6.367v19.4l15.843-6.367Zm-18.281,25.769v-19.4L87.933,122.7v19.4Zm-.143-35.7a3.671,3.671,0,0,1,2.73,0l17.378,6.983a1.218,1.218,0,0,1,.758,1.14V142.1a2.456,2.456,0,0,1-1.534,2.276l-17.5,7.039a1.263,1.263,0,0,1-.925,0l-17.5-7.039A2.449,2.449,0,0,1,85.5,142.1V120.886a1.216,1.216,0,0,1,.755-1.136Z" transform="translate(-85.5 -112.5)"/><path class="d" d="M103.777,148.461v-19.4L87.933,122.7v19.4Z" transform="translate(-85.5 -112.5)"/><path class="d" d="M105.459,115.037a1.255,1.255,0,0,0-.926,0l-14.526,5.849L105,126.913l14.99-6.027Z" transform="translate(-85.5 -112.5)"/></g></g></svg>