<svg xmlns="http://www.w3.org/2000/svg" width="28" height="34" viewBox="0 0 28 34"><defs><style>.a{fill:#509431;}.b{fill:#dc1f2e;stroke:#fff;stroke-width:2px;}.c{fill:#fff;font-size:12px;font-family:SourceSansPro-Semibold, Source Sans Pro;font-weight:600;isolation:isolate;}.d{stroke:none;}.e{fill:none;}</style></defs><g transform="translate(-1120.453 -7.815)"><path class="a" d="M1961.662,120.128a.736.736,0,0,1,.338.622V132a.744.744,0,0,1-.477.7l-.292-.7.292.7h-.015v0l-.046.013c-.031.01-.062.029-.123.049-.123.042-.277.1-.477.174-.415.144-.969.336-1.615.528a16.156,16.156,0,0,1-4.169.783,8.863,8.863,0,0,1-3.323-.788l-.046-.016a7.451,7.451,0,0,0-2.785-.7,14.5,14.5,0,0,0-3.754.715c-.6.183-1.123.366-1.508.5-.046.015-.077.03-.123.043v9.237a.769.769,0,0,1-1.538,0v-22.5a.769.769,0,0,1,1.538,0v.423c.354-.119.769-.254,1.215-.39a16.154,16.154,0,0,1,4.169-.783,8.59,8.59,0,0,1,3.261.778.237.237,0,0,1,.062.027,7.515,7.515,0,0,0,2.831.694,14.5,14.5,0,0,0,3.754-.715c.6-.183,1.123-.366,1.508-.5l.446-.165c.046-.02.092-.035.123-.045l.015-.011.016,0h0" transform="translate(-821.547 -102.185)"/><g class="b" transform="translate(1130.453 9.815)"><circle class="d" cx="8" cy="8" r="8"/><circle class="e" cx="8" cy="8" r="9"/></g><text class="c" transform="translate(1135.453 21.815)"><tspan x="0" y="0">8</tspan></text></g></svg>