<svg xmlns="http://www.w3.org/2000/svg" xmlns:xlink="http://www.w3.org/1999/xlink" width="125.948" height="126" viewBox="0 0 125.948 126"><defs><style>.a{fill:none;}.b{clip-path:url(#a);}.c{fill:#509431;}.d{fill:#fdda73;}.e{fill:#91d173;}.f{fill:#52ad28;}</style><clipPath id="a"><ellipse class="a" cx="62.974" cy="63" rx="62.974" ry="63"/></clipPath></defs><g class="b"><g transform="translate(-18.635 -8.65)"><path class="c" d="M-162.79,248.366-108.7,261.14V372.83H-162.79Z" transform="translate(162.79 -248.366)"/><g transform="translate(8.114 19.764)"><rect class="d" width="5.409" height="5.412"/><rect class="d" width="5.409" height="5.412" transform="translate(0 9.808)"/><rect class="d" width="5.409" height="5.412" transform="translate(0 19.616)"/><rect class="d" width="5.409" height="5.412" transform="translate(0 29.425)"/><rect class="d" width="5.409" height="5.412" transform="translate(0 39.233)"/><rect class="d" width="5.409" height="5.412" transform="translate(0 49.041)"/><rect class="d" width="5.409" height="5.412" transform="translate(0 58.849)"/><rect class="d" width="5.409" height="5.412" transform="translate(0 68.657)"/><rect class="d" width="5.409" height="5.412" transform="translate(0 78.466)"/><g transform="translate(10.517)"><rect class="d" width="5.409" height="5.412"/><rect class="d" width="5.409" height="5.412" transform="translate(0 9.808)"/><rect class="d" width="5.409" height="5.412" transform="translate(0 19.616)"/><rect class="d" width="5.409" height="5.412" transform="translate(0 29.425)"/><rect class="d" width="5.409" height="5.412" transform="translate(0 39.233)"/><rect class="d" width="5.409" height="5.412" transform="translate(0 49.041)"/><rect class="d" width="5.409" height="5.412" transform="translate(0 58.849)"/><rect class="d" width="5.409" height="5.412" transform="translate(0 68.657)"/><rect class="d" width="5.409" height="5.412" transform="translate(0 78.466)"/></g><g transform="translate(21.033)"><rect class="d" width="5.409" height="5.412"/><rect class="d" width="5.409" height="5.412" transform="translate(0 9.808)"/><rect class="d" width="5.409" height="5.412" transform="translate(0 19.616)"/><rect class="d" width="5.409" height="5.412" transform="translate(0 29.425)"/><rect class="d" width="5.409" height="5.412" transform="translate(0 39.233)"/><rect class="d" width="5.409" height="5.412" transform="translate(0 49.041)"/><rect class="d" width="5.409" height="5.412" transform="translate(0 58.849)"/><rect class="d" width="5.409" height="5.412" transform="translate(0 68.657)"/><rect class="d" width="5.409" height="5.412" transform="translate(0 78.466)"/></g><g transform="translate(31.551)"><rect class="d" width="5.409" height="5.412"/><rect class="d" width="5.409" height="5.412" transform="translate(0 9.808)"/><rect class="d" width="5.409" height="5.412" transform="translate(0 19.616)"/><rect class="d" width="5.409" height="5.412" transform="translate(0 29.425)"/><rect class="d" width="5.409" height="5.412" transform="translate(0 39.233)"/><rect class="d" width="5.409" height="5.412" transform="translate(0 49.041)"/><rect class="d" width="5.409" height="5.412" transform="translate(0 58.849)"/><rect class="d" width="5.409" height="5.412" transform="translate(0 68.657)"/><rect class="d" width="5.409" height="5.412" transform="translate(0 78.466)"/></g></g><g transform="translate(49.259 78.185)"><path class="c" d="M-113.511,334.136l19.562-7.585,20.374,11.556v34.719h-39.936Z" transform="translate(113.511 -326.551)"/></g><path class="e" d="M-66.874,364.857c0-1.088-.75-4.429-1.673-4.429s-1.673,3.341-1.673,4.429a1.908,1.908,0,0,0,1.366,1.934v6.115h.614V366.79A1.91,1.91,0,0,0-66.874,364.857Z" transform="translate(162.752 -248.366)"/><path class="e" d="M-118.551,364.857c0-1.088-.749-4.429-1.673-4.429s-1.673,3.341-1.673,4.429a1.91,1.91,0,0,0,1.366,1.934v6.115h.615V366.79A1.909,1.909,0,0,0-118.551,364.857Z" transform="translate(162.773 -248.366)"/><path class="e" d="M-123.462,364.857c0-1.088-.75-4.429-1.673-4.429s-1.674,3.341-1.674,4.429a1.909,1.909,0,0,0,1.367,1.934v6.115h.615V366.79A1.909,1.909,0,0,0-123.462,364.857Z" transform="translate(162.775 -248.366)"/><path class="e" d="M-61.852,364.857c0-1.088-.75-4.429-1.674-4.429s-1.673,3.341-1.673,4.429a1.908,1.908,0,0,0,1.366,1.934v6.115h.614V366.79A1.911,1.911,0,0,0-61.852,364.857Z" transform="translate(162.75 -248.366)"/><rect class="d" width="7.074" height="21.333" transform="translate(77.88 103.278)"/><path class="f" d="M-138.3,372.215H-5.154a6.75,6.75,0,0,1,6.747,6.75h0a6.749,6.749,0,0,1-6.747,6.75H-138.3a6.749,6.749,0,0,1-6.747-6.75h0A6.749,6.749,0,0,1-138.3,372.215Z" transform="translate(162.783 -248.366)"/><path class="e" d="M-98.133,366.37v1.3l-1.3.652a.9.9,0,0,0-.5.8v2.144h1.874a1.113,1.113,0,0,0-.075.374,1.124,1.124,0,0,0,1.125,1.125,1.125,1.125,0,0,0,1.125-1.125,1.119,1.119,0,0,0-.076-.374h2.331a1.119,1.119,0,0,0-.076.374,1.125,1.125,0,0,0,1.125,1.125,1.124,1.124,0,0,0,1.125-1.125,1.094,1.094,0,0,0-.075-.374h1.5v-4.9a.9.9,0,0,0-.9-.9h-6.3a.9.9,0,0,0-.907.893Z" transform="translate(162.764 -248.366)"/></g></g></svg>