<svg xmlns="http://www.w3.org/2000/svg" width="65" height="43.289" viewBox="0 0 65 43.289"><defs><style>.a{fill:#6ebe49;}.b,.c{fill:#616161;}.b{stroke:#616161;stroke-width:0.5px;}</style></defs><g transform="translate(-20.869 -21.224)"><path class="a" d="M50.69,33.637c-.209.165,0,.9,0,.9s-4.741,5.077-5.4,8.119c-6.536,1.313-10.064,6.61-8.731,13.048a12.659,12.659,0,0,0,3.712,6.47H32.544A8.676,8.676,0,0,1,31.5,44.857l1.479-.165V43.245c0-1.994,1.28-4.536,3.776-6.654a15.028,15.028,0,0,1,9.661-3.564A13.6,13.6,0,0,1,50.69,33.637Z" transform="translate(0 -0.487)"/><path class="b" d="M77.9,21.658a1.024,1.024,0,0,1,.477,1.2L74.642,35h6.889a1.046,1.046,0,0,1,.955.623,1.016,1.016,0,0,1-.208,1.12L65.678,54.38a1.012,1.012,0,0,1-1.266.187,1.03,1.03,0,0,1-.478-1.2l3.736-12.14H60.776a1.052,1.052,0,0,1-.955-.623,1.023,1.023,0,0,1,.207-1.121l16.6-17.638A1.013,1.013,0,0,1,77.9,21.658ZM63.187,39.152h5.889a1.041,1.041,0,0,1,.83.415,1.077,1.077,0,0,1,.166.934L67.23,49.715,79.12,37.077H73.226a1.056,1.056,0,0,1-.829-.415,1.081,1.081,0,0,1-.167-.934l2.844-9.214Z" transform="translate(-0.035)"/><path class="c" d="M80.985,46.04c-1.709-.927-2.808,1.084-2.379,2.238a6.876,6.876,0,0,1-3.2,13.132H47.273a8.277,8.277,0,0,1-.77-16.523l1.409-.158v-1.38c0-1.9,1.219-4.328,3.6-6.349a13.182,13.182,0,0,1,1.769-1.282c.01-.01.01-.02.02-.02a13.835,13.835,0,0,1,3.2-1.43,14.311,14.311,0,0,1,3.928-.661h.04a1.923,1.923,0,0,0,1.909-1.922,1.863,1.863,0,0,0-.16-.769,2.12,2.12,0,0,0-.2-.355,11.362,11.362,0,0,0-1.3-.049,17.519,17.519,0,0,0-7.386,1.656h-.01c-.01,0-.01.01-.02.01s-.01-.01-.02-.01h-.01a16.308,16.308,0,0,0-7.346-1.656A17.355,17.355,0,0,0,34.68,34.663a12.913,12.913,0,0,0-4.608,7.364,11.365,11.365,0,0,0-8.965,13.408,11.483,11.483,0,0,0,11.6,9.07H75.418a10.024,10.024,0,0,0,10.444-9.583A9.894,9.894,0,0,0,80.985,46.04ZM32.711,61.41a8.278,8.278,0,0,1-1-16.523l1.409-.158v-1.38c0-1.9,1.219-4.328,3.6-6.349a14.334,14.334,0,0,1,9.205-3.4,13.142,13.142,0,0,1,4.108.592c-.19.158-.38.315-.56.473a12.95,12.95,0,0,0-4.6,7.364,11.389,11.389,0,0,0-9.215,11.14,11.23,11.23,0,0,0,3.608,8.242Z" transform="translate(0)"/></g></svg>