<svg xmlns="http://www.w3.org/2000/svg" width="48.26" height="64.596" viewBox="0 0 48.26 64.596"><defs><style>.a{fill:#6ebe49;}.b,.c{fill:#616262;}.c{stroke:#616262;stroke-width:0.5px;}</style></defs><g transform="translate(-191.06 -80.548)"><path class="a" d="M221.089,138.691c-.384,2.784-2.357,4.827-4.672,4.835H192.7a9.341,9.341,0,0,1,1.448-3.15c2.61-3.794,7.982-6.39,14.179-6.39a20.46,20.46,0,0,1,7.55,1.4A15.4,15.4,0,0,1,221.089,138.691Z"/><path class="b" d="M207.025,114.542a7.7,7.7,0,0,0-.008,15.39h.008a7.7,7.7,0,1,0,0-15.39Zm0,12.96h-.008a5.27,5.27,0,1,1,.008,0Z"/><path class="b" d="M219.9,116.665V138.1c-1.855-2.4-5.2-4.236-9.25-5h-.008c-.373-.065-.745-.13-1.126-.18a23.507,23.507,0,0,0-6.043,0c-.38.048-.753.113-1.126.18h-.016a15.778,15.778,0,0,0-8.837,4.495v-.053c-.121.138-.235.284-.348.429-.251.27-.138.114.348-.429V106.621a2.029,2.029,0,0,1,2.025-2.025h10.7v-2.43h-10.7a4.463,4.463,0,0,0-4.455,4.455v34.068a4.463,4.463,0,0,0,4.455,4.455h22.356a4.464,4.464,0,0,0,4.39-3.726,4.232,4.232,0,0,0,.065-.729V116.665Zm-.85,25.677a.334.334,0,0,1-.065.04,2.018,2.018,0,0,1-1.11.332H195.515a2.02,2.02,0,0,1-1.11-.332,1.841,1.841,0,0,1-.437-.389c.421-3.75,5.986-6.828,12.523-6.828,4.576,0,8.675,1.507,10.87,3.7A5.153,5.153,0,0,1,219.046,142.342Z"/><g transform="translate(-0.64)"><circle class="a" cx="6.095" cy="6.095" r="6.095" transform="translate(217.109 91.216)"/><g transform="translate(206.7 80.808)"><path class="c" d="M239.544,96.2a3.856,3.856,0,0,0-2.593-2.6l-.665-.192a1.787,1.787,0,0,1-1.232-2.207h0a1.916,1.916,0,0,1,.161-.381l.329-.6a3.864,3.864,0,0,0-5.245-5.232l-.6.321a1.811,1.811,0,0,1-2.454-.726l-.008-.016a1.338,1.338,0,0,1-.137-.328l-.179-.657a3.877,3.877,0,0,0-7.432,0l-.184.657a1.82,1.82,0,0,1-2.269,1.214h0a2.41,2.41,0,0,1-.336-.138l-.6-.328a3.864,3.864,0,0,0-5.237,5.232l.329.6a1.8,1.8,0,0,1-.7,2.436,1.706,1.706,0,0,1-.375.153l-.666.192a3.869,3.869,0,0,0,0,7.409l.666.191a1.8,1.8,0,0,1,1.231,2.216,2.311,2.311,0,0,1-.153.374l-.329.6a3.865,3.865,0,0,0,5.236,5.24l.6-.329a1.815,1.815,0,0,1,2.458.736h0a1.289,1.289,0,0,1,.137.337l.191.657a3.877,3.877,0,0,0,7.432,0l.179-.657a1.813,1.813,0,0,1,2.256-1.216h.007a1.413,1.413,0,0,1,.336.137l.6.33a3.869,3.869,0,0,0,5.244-5.241l-.328-.6a1.787,1.787,0,0,1,.692-2.428h0a1.626,1.626,0,0,1,.376-.16l.665-.191a3.862,3.862,0,0,0,2.593-4.808Zm-1.972,1.608a1.8,1.8,0,0,1-1.223,1.229l-.643.192a3.864,3.864,0,0,0-2.629,4.79,3.6,3.6,0,0,0,.321.763l.329.6a1.807,1.807,0,0,1-2.455,2.444l-.6-.328a3.863,3.863,0,0,0-5.234,1.552h0v.006a3.686,3.686,0,0,0-.314.741l-.179.656a1.806,1.806,0,0,1-3.463,0l-.192-.656a3.853,3.853,0,0,0-4.782-2.61h0l-.018,0a3.7,3.7,0,0,0-.749.306l-.6.328a1.811,1.811,0,0,1-2.454-.71,1.837,1.837,0,0,1,0-1.734l.329-.6a3.859,3.859,0,0,0-1.544-5.232,3.948,3.948,0,0,0-.765-.314l-.642-.19a1.8,1.8,0,0,1,0-3.454l.642-.192a3.853,3.853,0,0,0,2.627-4.776v-.013a3.941,3.941,0,0,0-.314-.764l-.329-.6a1.8,1.8,0,0,1,.722-2.442h0a1.782,1.782,0,0,1,1.728,0l.6.329a3.872,3.872,0,0,0,5.244-1.551,3.724,3.724,0,0,0,.306-.749l.192-.664a1.807,1.807,0,0,1,3.463,0l.179.657a3.875,3.875,0,0,0,4.818,2.6,3.654,3.654,0,0,0,.734-.306l.6-.329a1.806,1.806,0,0,1,2.455,2.444l-.33.6a3.85,3.85,0,0,0,1.535,5.226h0l.009.006a3.558,3.558,0,0,0,.764.321l.643.192a1.8,1.8,0,0,1,1.221,2.216Z" transform="translate(-206.7 -80.808)"/><path class="c" d="M229.192,94.112a6.741,6.741,0,0,0-5.871-3.433h-.008a6.747,6.747,0,1,0,5.879,3.433Zm-5.871,7.978h-.008a4.68,4.68,0,0,1-3.6-1.685V100.4a4.691,4.691,0,0,1-1.08-2.97h.008a4.671,4.671,0,0,1,4.654-4.686h.009a4.421,4.421,0,0,1,1.632.3,4.67,4.67,0,0,1-1.62,9.049Z" transform="translate(-206.807 -80.93)"/></g></g></g></svg>