<svg xmlns="http://www.w3.org/2000/svg" xmlns:xlink="http://www.w3.org/1999/xlink" width="125.974" height="126" viewBox="0 0 125.974 126"><defs><style>.a{fill:none;}.b{fill:#2d2d2d;}.c{clip-path:url(#a);}.d{clip-path:url(#b);}.e{fill:#509431;}.f{fill:#91d173;}.g{fill:#6ebe49;}.h{fill:#fdda73;}.i{fill:#6eaa35;}</style><clipPath id="a"><ellipse class="a" cx="62.975" cy="63" rx="62.975" ry="63"/></clipPath><clipPath id="b"><rect class="a" width="121.367" height="73.308" rx="3.6"/></clipPath></defs><g transform="translate(-620.026 -604)"><path class="b" d="M66.3,379.139A63,63,0,1,1,94.663,259.9H93.242a16.936,16.936,0,0,0,0,33.871h31.933A62.959,62.959,0,0,1,66.3,379.139Z" transform="translate(616.713 350.836)"/><g transform="translate(620.026 604)"><g class="c"><g transform="translate(28.788 63)"><g class="d"><g transform="translate(-3.435)"><rect class="e" width="121.367" height="73.308" rx="3.6" transform="translate(3.435)"/><rect class="f" width="20.61" height="52.69" rx="0.9" transform="translate(9.16 13.745)"/><rect class="f" width="38.929" height="20.618" rx="0.9" transform="translate(36.639 13.745)"/><rect class="f" width="83.583" height="26.345" rx="0.9" transform="translate(36.639 40.091)"/><rect class="f" width="38.929" height="20.618" rx="0.9" transform="translate(81.293 13.745)"/><rect class="g" width="127.092" height="8.018" rx="1.8"/><g transform="translate(7.933 2.7)"><ellipse class="h" cx="1.799" cy="1.8" rx="1.799" ry="1.8"/></g><g transform="translate(15.13 2.7)"><ellipse class="h" cx="1.799" cy="1.8" rx="1.799" ry="1.8"/></g><g transform="translate(22.327 2.7)"><ellipse class="h" cx="1.799" cy="1.8" rx="1.799" ry="1.8"/></g></g></g><rect class="i" width="14.885" height="34.28" transform="translate(52.668 73.308)"/><path class="i" d="M76.237,418.025H108.3c.949,0,1.717,3.06,1.717,4.009a1.717,1.717,0,0,1-1.717,1.718h0s-8.578,3.065-16.593,3.065a46.129,46.129,0,0,1-15.466-3.064,1.717,1.717,0,0,1-1.717-1.718h0C74.52,421.085,75.289,418.025,76.237,418.025Z" transform="translate(-32.156 -316.164)"/></g></g></g></g></svg>