<svg xmlns="http://www.w3.org/2000/svg" xmlns:xlink="http://www.w3.org/1999/xlink" width="126" height="126.001" viewBox="0 0 126 126.001"><defs><style>.a{fill:none;}.b{fill:#2d2d2d;}.c{clip-path:url(#a);}.d{fill:#fff;}.e{fill:#fdda73;}.f{fill:#509431;}.g{fill:#91d173;}</style><clipPath id="a"><ellipse class="a" cx="62.974" cy="63" rx="62.974" ry="63"/></clipPath></defs><g transform="translate(-157.614 -255.126)"><g transform="translate(157.614 255.126)"><path class="b" d="M220.613,381.126a63.009,63.009,0,1,1,28.368-119.262h-1.42a16.939,16.939,0,0,0,0,33.878H279.5a62.97,62.97,0,0,1-58.885,85.384Z" transform="translate(-157.614 -255.126)"/><g transform="translate(0.025)"><g class="c"><g transform="translate(17.369 -11.7)"><g transform="translate(27.612)"><ellipse class="d" cx="0.9" cy="0.9" rx="0.9" ry="0.9" transform="translate(2.699 36)"/><ellipse class="d" cx="0.9" cy="0.9" rx="0.9" ry="0.9" transform="translate(2.699 28.8)"/><ellipse class="d" cx="0.9" cy="0.9" rx="0.9" ry="0.9" transform="translate(2.699 21.6)"/><ellipse class="d" cx="0.9" cy="0.9" rx="0.9" ry="0.9" transform="translate(2.699 14.4)"/><ellipse class="d" cx="0.9" cy="0.9" rx="0.9" ry="0.9" transform="translate(2.699 7.2)"/><ellipse class="d" cx="0.9" cy="0.9" rx="0.9" ry="0.9" transform="translate(2.699)"/><ellipse class="d" cx="0.9" cy="0.9" rx="0.9" ry="0.9" transform="translate(2.699 54.9)"/><ellipse class="d" cx="0.9" cy="0.9" rx="0.9" ry="0.9" transform="translate(2.699 62.1)"/><ellipse class="d" cx="0.9" cy="0.9" rx="0.9" ry="0.9" transform="translate(2.699 69.3)"/><ellipse class="d" cx="0.9" cy="0.9" rx="0.9" ry="0.9" transform="translate(2.699 76.5)"/><ellipse class="d" cx="0.9" cy="0.9" rx="0.9" ry="0.9" transform="translate(2.699 83.7)"/><ellipse class="d" cx="0.9" cy="0.9" rx="0.9" ry="0.9" transform="translate(2.699 90.9)"/><g transform="translate(0 42.3)"><ellipse class="e" cx="3.599" cy="3.6" rx="3.599" ry="3.6"/></g></g><g transform="translate(14.118 18)"><g transform="translate(0 57.6)"><ellipse class="e" cx="3.599" cy="3.6" rx="3.599" ry="3.6"/></g><ellipse class="d" cx="0.9" cy="0.9" rx="0.9" ry="0.9" transform="translate(2.699 51.3)"/><ellipse class="d" cx="0.9" cy="0.9" rx="0.9" ry="0.9" transform="translate(2.699 44.1)"/><ellipse class="d" cx="0.9" cy="0.9" rx="0.9" ry="0.9" transform="translate(2.699 36.9)"/><ellipse class="d" cx="0.9" cy="0.9" rx="0.9" ry="0.9" transform="translate(2.699 29.7)"/><ellipse class="d" cx="0.9" cy="0.9" rx="0.9" ry="0.9" transform="translate(2.699 22.5)"/><ellipse class="d" cx="0.9" cy="0.9" rx="0.9" ry="0.9" transform="translate(2.699 15.3)"/><ellipse class="d" cx="0.9" cy="0.9" rx="0.9" ry="0.9" transform="translate(2.699 70.2)"/><ellipse class="d" cx="0.9" cy="0.9" rx="0.9" ry="0.9" transform="translate(2.699 77.4)"/><ellipse class="d" cx="0.9" cy="0.9" rx="0.9" ry="0.9" transform="translate(2.699 84.6)"/><ellipse class="d" cx="0.9" cy="0.9" rx="0.9" ry="0.9" transform="translate(2.699 91.8)"/><ellipse class="d" cx="0.9" cy="0.9" rx="0.9" ry="0.9" transform="translate(2.699 8.1)"/><ellipse class="d" cx="0.9" cy="0.9" rx="0.9" ry="0.9" transform="translate(2.699)"/></g><g transform="translate(41.107 12.6)"><ellipse class="d" cx="0.9" cy="0.9" rx="0.9" ry="0.9" transform="translate(2.699 64.8)"/><ellipse class="d" cx="0.9" cy="0.9" rx="0.9" ry="0.9" transform="translate(2.699 57.6)"/><ellipse class="d" cx="0.9" cy="0.9" rx="0.9" ry="0.9" transform="translate(2.699 50.4)"/><ellipse class="d" cx="0.9" cy="0.9" rx="0.9" ry="0.9" transform="translate(2.699 43.2)"/><ellipse class="d" cx="0.9" cy="0.9" rx="0.9" ry="0.9" transform="translate(2.699 36)"/><ellipse class="d" cx="0.9" cy="0.9" rx="0.9" ry="0.9" transform="translate(2.699 28.8)"/><ellipse class="d" cx="0.9" cy="0.9" rx="0.9" ry="0.9" transform="translate(2.699 21.6)"/><ellipse class="d" cx="0.9" cy="0.9" rx="0.9" ry="0.9" transform="translate(2.699 14.4)"/><ellipse class="d" cx="0.9" cy="0.9" rx="0.9" ry="0.9" transform="translate(2.699 7.2)"/><ellipse class="d" cx="0.9" cy="0.9" rx="0.9" ry="0.9" transform="translate(2.699)"/><g transform="translate(0 71.1)"><ellipse class="e" cx="3.599" cy="3.6" rx="3.599" ry="3.6"/></g></g><g transform="translate(0 71.129)"><path class="f" d="M179.985,337.258h-2.542a2.517,2.517,0,0,0-1.853.79,2.088,2.088,0,0,0-.54,1.816l6.69,41.541a7.166,7.166,0,0,0,7.218,5.8h35.515a7.165,7.165,0,0,0,7.217-5.8l6.683-41.541a2.088,2.088,0,0,0-.54-1.816,2.517,2.517,0,0,0-1.853-.79h-2.537c-1.261-12.727-12.729-22.7-26.727-22.7S181.252,324.531,179.985,337.258Zm4.927,0c1.219-10.216,10.487-18.162,21.805-18.162s20.587,7.946,21.806,18.162Z" transform="translate(-175.015 -314.555)"/><path class="g" d="M233.279,337.269s-4.631,37.728-7.115,43.066-11.023,7.02-11.023,7.02,14.685,2.923,16.76-6.236c1.545-7.99,5.5-33.183,6.547-41.118a2.359,2.359,0,0,0-2.5-2.73Z" transform="translate(-175.032 -314.555)"/><path class="g" d="M179.954,337.269s4.292,37.728,6.594,43.066,10.217,7.02,10.217,7.02-13.61,2.923-15.533-6.236c-1.433-7.99-5.1-33.183-6.069-41.118a2.3,2.3,0,0,1,1.825-2.69,2.375,2.375,0,0,1,.491-.04Z" transform="translate(-175.016 -314.555)"/></g></g></g></g></g></g></svg>