<svg xmlns="http://www.w3.org/2000/svg" width="58.249" height="59.25" viewBox="0 0 58.249 59.25"><defs><style>.a{fill:#6ebe49;}.b,.c{fill:#616161;}.c{stroke:#616161;stroke-width:0.5px;}</style></defs><g transform="translate(-64.187 -165.107)"><path class="a" d="M119.972,167.816c-.542.209-1.182.448-1.9.683a22.99,22.99,0,0,1-6.728,1.4,12.919,12.919,0,0,1-5.421-1.43H105.9a10.721,10.721,0,0,0-4.411-1.251,21.443,21.443,0,0,0-5.961,1.279c-.96.33-1.823.653-2.464.9a1.3,1.3,0,0,1-.2.083v16.265c.542-.21,1.183-.448,1.9-.683a23.088,23.088,0,0,1,6.726-1.4,13,13,0,0,1,5.323,1.408l.074.03a10.928,10.928,0,0,0,4.462,1.245,21.441,21.441,0,0,0,5.963-1.279c.962-.33,1.824-.654,2.464-.9a1.209,1.209,0,0,1,.2-.084Z"/><path class="b" d="M121.9,165.316l-1.166-.11h-.026l-.022.022a1.041,1.041,0,0,0-.2.066l-.715.275c-.616.22-1.452.528-2.409.825a22.994,22.994,0,0,1-6.017,1.177,11.8,11.8,0,0,1-4.532-1.144.39.39,0,0,0-.1-.044,13.477,13.477,0,0,0-5.225-1.276,25.1,25.1,0,0,0-6.677,1.287c-.715.22-1.386.44-1.947.638v-.693a1.232,1.232,0,1,0-2.464,0v36.974a1.231,1.231,0,0,0,1.23,1.232h.007a1.231,1.231,0,0,0,1.232-1.232V188.119l.006-.009c.628-.22,1.54-.564,2.6-.893a23,23,0,0,1,6.017-1.177,11.553,11.553,0,0,1,4.455,1.144l.077.022a13.918,13.918,0,0,0,5.324,1.3,25.5,25.5,0,0,0,6.677-1.287c1.034-.308,1.925-.616,2.585-.869.33-.11.572-.209.77-.286.1-.033.143-.055.2-.077l.066-.022h.033a1.22,1.22,0,0,0,.759-1.144V166.339A1.226,1.226,0,0,0,121.9,165.316Zm-1.925,18.656v.007c-.65.238-1.6.566-2.657.895a22.5,22.5,0,0,1-5.962,1.177,11.563,11.563,0,0,1-4.455-1.144l-.077-.022a13.983,13.983,0,0,0-5.324-1.3,25.169,25.169,0,0,0-6.732,1.287c-.715.22-1.353.44-1.892.627V169.645l.006-.011c.65-.22,1.6-.55,2.656-.891a23.374,23.374,0,0,1,5.962-1.177,11.4,11.4,0,0,1,4.408,1.16h.022a13.84,13.84,0,0,0,5.418,1.309,24.531,24.531,0,0,0,6.721-1.29c.715-.209,1.364-.429,1.9-.627Z"/><path class="b" d="M79.455,212.733a1.2,1.2,0,0,1,1.2-1.2h7.2a1.2,1.2,0,1,1,0,2.4h-7.2A1.2,1.2,0,0,1,79.455,212.733Z"/><path class="b" d="M73.672,201.091a1.2,1.2,0,0,0-1.68,1.7l3.936,3.954-3.936,3.946a1.2,1.2,0,0,0,1.68,1.7l4.8-4.8a1.181,1.181,0,0,0,.032-1.67h0l-.026-.026Z"/><path class="c" d="M98.037,193.507H96.764a1.2,1.2,0,0,0-1.2,1.2h0a1.2,1.2,0,0,0,1.2,1.2h1.27a2.4,2.4,0,0,1,2.4,2.4h0v21a2.4,2.4,0,0,1-2.4,2.4h-28.8a2.4,2.4,0,0,1-2.4-2.4h0v-21a2.4,2.4,0,0,1,2.4-2.4h16.89a1.2,1.2,0,0,0,1.2-1.2h0a1.2,1.2,0,0,0-1.2-1.2H69.237a4.8,4.8,0,0,0-4.8,4.8h0v21a4.8,4.8,0,0,0,4.8,4.8h28.8a4.8,4.8,0,0,0,4.8-4.8h0v-21A4.8,4.8,0,0,0,98.037,193.507Z"/></g></svg>